<svg width="22" height="22" viewBox="0 0 22 22" fill="none" xmlns="http://www.w3.org/2000/svg">
<g clip-path="url(#clip0_5620_21179)">
<path d="M8.86622 2.26372C9.99913 0.998213 11.9805 0.998213 13.1134 2.26372L13.2222 2.3853C13.7996 3.03026 14.6388 3.37787 15.5031 3.33008L15.6661 3.32108C17.362 3.22732 18.763 4.62833 18.6693 6.32427L18.6602 6.48721C18.6125 7.35153 18.9601 8.19073 19.605 8.76811L19.7266 8.87696C20.9921 10.0099 20.9921 11.9912 19.7266 13.1241L19.605 13.233C18.9601 13.8103 18.6125 14.6495 18.6602 15.5139L18.6693 15.6768C18.763 17.3727 17.362 18.7738 15.6661 18.68L15.5031 18.671C14.6388 18.6232 13.7996 18.9708 13.2222 19.6158L13.1134 19.7374C11.9805 21.0029 9.99913 21.0029 8.86622 19.7374L8.75737 19.6158C8.17999 18.9708 7.34079 18.6232 6.47647 18.671L6.31353 18.68C4.61759 18.7738 3.21658 17.3727 3.31033 15.6768L3.31934 15.5139C3.36713 14.6495 3.01952 13.8103 2.37456 13.233L2.25297 13.1241C0.987471 11.9912 0.987471 10.0099 2.25297 8.87696L2.37456 8.76811C3.01952 8.19073 3.36713 7.35153 3.31934 6.48721L3.31033 6.32427C3.21658 4.62833 4.61759 3.22732 6.31353 3.32108L6.47647 3.33008C7.34079 3.37787 8.17999 3.03026 8.75737 2.3853L8.86622 2.26372Z" fill="#1DA1F2"/>
<path d="M7.28906 10.9999L9.75771 13.4685L14.0779 7.91406" stroke="white" stroke-width="1.85149" stroke-linecap="round" stroke-linejoin="round"/>
</g>
<defs>
<clipPath id="clip0_5620_21179">
<rect width="21.9828" height="21.9828" fill="white" transform="translate(0 0.00878906)"/>
</clipPath>
</defs>
</svg>
