<svg width="40" height="40" viewBox="0 0 40 40" fill="none" xmlns="http://www.w3.org/2000/svg">
<rect width="40" height="40" rx="10" fill="#DCFCE7"/>
<path d="M14.1971 28.9343L23.2557 20.4086L27.5186 24.6714M14.1971 28.9343H24.8543C26.62 28.9343 28.0514 27.5029 28.0514 25.7371V20.4086M14.1971 28.9343C12.4314 28.9343 11 27.5029 11 25.7371V15.08C11 13.3143 12.4314 11.8829 14.1971 11.8829H21.1243M26.9857 17.0286L26.9857 14.0143M26.9857 14.0143L26.9857 11M26.9857 14.0143L23.9714 14.0143M26.9857 14.0143L30 14.0143M17.3943 16.6786C17.3943 17.5614 16.6786 18.2771 15.7957 18.2771C14.9128 18.2771 14.1971 17.5614 14.1971 16.6786C14.1971 15.7957 14.9128 15.08 15.7957 15.08C16.6786 15.08 17.3943 15.7957 17.3943 16.6786Z" stroke="#25C277" stroke-width="2" stroke-linecap="round" stroke-linejoin="round"/>
</svg>
