<svg width="35" height="34" viewBox="0 0 35 34" fill="none" xmlns="http://www.w3.org/2000/svg">
<rect x="0.5" width="34" height="34" rx="10" fill="#F6A723"/>
<path d="M13.9535 23.75H21.4215C21.8446 23.75 22.1875 23.4046 22.1875 22.9786V20.9178C22.1875 20.7531 22.1352 20.5928 22.0382 20.4602L19.8293 17.4411C19.6361 17.1769 19.6299 16.8186 19.8138 16.5478L21.8622 13.5327C21.9494 13.4044 21.996 13.2525 21.996 13.0971V11.0214C21.996 10.5954 21.6531 10.25 21.2301 10.25H13.9535C13.5304 10.25 13.1875 10.5954 13.1875 11.0214V13.0822C13.1875 13.2469 13.2398 13.4072 13.3368 13.5398L15.5336 16.5424C15.7326 16.8145 15.7326 17.1855 15.5336 17.4576L13.3368 20.4602C13.2398 20.5928 13.1875 20.7531 13.1875 20.9178V22.9786C13.1875 23.4046 13.5304 23.75 13.9535 23.75Z" stroke="white" stroke-width="1.5" stroke-linecap="round" stroke-linejoin="round"/>
</svg>
