<svg width="64" height="64" viewBox="0 0 64 64" fill="none" xmlns="http://www.w3.org/2000/svg">
<rect width="64" height="64" rx="16" fill="#FCE7F3"/>
<path d="M43.3772 32.6619C43.3772 31.9715 42.8176 31.4118 42.1272 31.4118C41.4368 31.4118 40.8772 31.9715 40.8772 32.6619H43.3772ZM31.4386 23.3235C32.129 23.3235 32.6886 22.7639 32.6886 22.0735C32.6886 21.3832 32.129 20.8235 31.4386 20.8235V23.3235ZM38.0329 32.6619C38.0329 31.9715 37.4733 31.4118 36.7829 31.4118C36.0925 31.4118 35.5329 31.9715 35.5329 32.6619H38.0329ZM31.4386 28.6177C32.129 28.6177 32.6886 28.0581 32.6886 27.3677C32.6886 26.6773 32.129 26.1177 31.4386 26.1177V28.6177ZM37.0421 28.6571C37.5325 28.1712 37.5362 27.3798 37.0504 26.8893C36.5645 26.3989 35.7731 26.3951 35.2826 26.881L37.0421 28.6571ZM30.5589 31.5604C30.0684 32.0462 30.0647 32.8377 30.5506 33.3282C31.0364 33.8186 31.8279 33.8223 32.3183 33.3365L30.5589 31.5604ZM43.2502 24.4935L44.1299 25.3816C44.4672 25.0474 44.5861 24.551 44.4367 24.1003C44.2873 23.6495 43.8955 23.3224 43.4253 23.2559L43.2502 24.4935ZM38.9988 28.705L38.6069 29.892C39.0533 30.0394 39.5446 29.9239 39.8786 29.5931L38.9988 28.705ZM35.2199 24.9615L34.3401 24.0734C34.0014 24.409 33.883 24.9082 34.0351 25.3601L35.2199 24.9615ZM39.4712 20.75L40.7084 20.5716C40.641 20.1043 40.3161 19.7149 39.8685 19.5648C39.4209 19.4148 38.9269 19.5297 38.5915 19.862L39.4712 20.75ZM36.1646 27.7691L34.9799 28.1678C35.1053 28.5407 35.3991 28.8327 35.7727 28.9561L36.1646 27.7691ZM39.9436 24.0256L38.7064 24.204C38.7857 24.7539 39.2184 25.1854 39.7684 25.2633L39.9436 24.0256ZM40.8772 32.6619C40.8772 37.8082 36.6625 42.0002 31.4386 42.0002V44.5002C38.021 44.5002 43.3772 39.2111 43.3772 32.6619H40.8772ZM31.4386 42.0002C26.2147 42.0002 22 37.8082 22 32.6619H19.5C19.5 39.2111 24.8562 44.5002 31.4386 44.5002V42.0002ZM22 32.6619C22 27.5155 26.2147 23.3235 31.4386 23.3235V20.8235C24.8562 20.8235 19.5 26.1126 19.5 32.6619H22ZM35.5329 32.6619C35.5329 34.8843 33.711 36.706 31.4386 36.706V39.206C35.0694 39.206 38.0329 36.2872 38.0329 32.6619H35.5329ZM31.4386 36.706C29.1663 36.706 27.3443 34.8843 27.3443 32.6619H24.8443C24.8443 36.2872 27.8078 39.206 31.4386 39.206V36.706ZM27.3443 32.6619C27.3443 30.4394 29.1663 28.6177 31.4386 28.6177V26.1177C27.8078 26.1177 24.8443 29.0365 24.8443 32.6619H27.3443ZM35.2826 26.881L30.5589 31.5604L32.3183 33.3365L37.0421 28.6571L35.2826 26.881ZM42.3705 23.6055L38.1191 27.817L39.8786 29.5931L44.1299 25.3816L42.3705 23.6055ZM36.0996 25.8495L40.3509 21.638L38.5915 19.862L34.3401 24.0734L36.0996 25.8495ZM39.3908 27.518L36.5565 26.5822L35.7727 28.9561L38.6069 29.892L39.3908 27.518ZM37.3493 27.3705L36.4046 24.5628L34.0351 25.3601L34.9799 28.1678L37.3493 27.3705ZM38.234 20.9284L38.7064 24.204L41.1808 23.8472L40.7084 20.5716L38.234 20.9284ZM39.7684 25.2633L43.075 25.7312L43.4253 23.2559L40.1187 22.7879L39.7684 25.2633Z" fill="#ED4F9D"/>
</svg>
