<svg width="14" height="15" viewBox="0 0 14 15" fill="none" xmlns="http://www.w3.org/2000/svg">
    <path
        d="M3.25 13.5002C2.00736 13.5002 1 12.4928 1 11.2502V3.75002C1 2.50737 2.00736 1.5 3.25 1.5H10.75C11.9926 1.5 13 2.50737 13 3.75002L13 11.2502C13 12.4928 11.9926 13.5002 10.75 13.5002H3.25Z"
        fill="#25C277" />
    <path
        d="M9.25 6.00004L5.89398 9.00007L4.75 7.97744M13 3.75002L13 11.2502C13 12.4928 11.9926 13.5002 10.75 13.5002H3.25C2.00736 13.5002 1 12.4928 1 11.2502V3.75002C1 2.50737 2.00736 1.5 3.25 1.5H10.75C11.9926 1.5 13 2.50737 13 3.75002Z"
        stroke="white" stroke-width="1.50001" stroke-linecap="round" stroke-linejoin="round" />
</svg>