<svg width="28" height="28" viewBox="0 0 28 28" fill="none" xmlns="http://www.w3.org/2000/svg">
<path fill-rule="evenodd" clip-rule="evenodd" d="M13.9762 3C7.91793 3 3 7.91793 3 13.9762C3 16.1145 3.59395 18.1577 4.7581 19.9395L3.09503 23.622C2.95248 23.9546 3 24.3585 3.23758 24.6436C3.42765 24.8575 3.68898 24.9762 3.97408 24.9762C4.06911 24.9762 4.14039 24.9762 4.23542 24.9525L8.84449 23.6933C10.4363 24.5486 12.2181 25 14.0238 25C20.0821 25 25 20.0821 25 14.0238C24.9525 7.91793 20.0346 3 13.9762 3ZM13.9762 23.0518C12.3607 23.0518 10.7927 22.6242 9.41469 21.8164C9.27214 21.7214 9.10583 21.6739 8.93952 21.6739C8.84449 21.6739 8.77322 21.6739 8.67819 21.6976L5.66091 22.5292L6.70626 20.2246C6.84881 19.9158 6.8013 19.5356 6.61123 19.2743C5.4946 17.73 4.90065 15.9006 4.90065 13.9762C4.90065 8.98704 8.98704 4.90065 13.9762 4.90065C18.9654 4.90065 23.0518 8.96328 23.0518 13.9762C23.0518 18.9654 18.9892 23.0518 13.9762 23.0518Z" fill="white"/>
<path fill-rule="evenodd" clip-rule="evenodd" d="M18.5282 15.6344C18.0768 15.3493 17.4591 15.0404 16.9364 15.278C16.5325 15.4443 16.2474 16.1096 15.9861 16.4422C15.8435 16.6085 15.6772 16.6322 15.4634 16.561C13.8954 15.9433 12.7075 14.8979 11.8522 13.4724C11.7096 13.2586 11.7334 13.0685 11.8997 12.8547C12.161 12.5458 12.4936 12.1895 12.5649 11.7856C12.6362 11.3817 12.4461 10.8828 12.2798 10.5264C12.066 10.0512 11.8284 9.38602 11.3532 9.12468C10.9256 8.8871 10.3554 9.00589 9.97527 9.3385C9.31004 9.88494 8.97743 10.7402 9.00119 11.5718C9.00119 11.8093 9.02495 12.0469 9.09622 12.2845C9.23877 12.8309 9.47635 13.3536 9.78521 13.8525C9.99903 14.2327 10.2366 14.589 10.4979 14.9217C11.3295 16.062 12.3748 17.0361 13.5627 17.7726C14.1567 18.129 14.8219 18.4616 15.4871 18.6754C16.2474 18.913 16.9126 19.1744 17.7204 19.0318C18.5757 18.8655 19.4072 18.3428 19.7398 17.535C19.8349 17.2975 19.8824 17.0124 19.8349 16.7748C19.6686 16.2046 18.9558 15.8957 18.5282 15.6344Z" fill="white"/>
</svg>
