<svg width="28" height="28" viewBox="0 0 28 28" fill="none" xmlns="http://www.w3.org/2000/svg">
<g clip-path="url(#clip0_9374_35730)">
<path d="M19.0259 0H4.97409C2.22698 0 0 2.22698 0 4.97409V19.0259C0 21.773 2.22698 24 4.97409 24H19.0259C21.773 24 24 21.773 24 19.0259V4.97409C24 2.22698 21.773 0 19.0259 0Z" fill="#1778F2"/>
<path d="M12.9558 18.773V12.3496H15.1119L15.4352 9.84628H12.9558V8.24798C12.9558 7.52325 13.1571 7.02933 14.1964 7.02933H15.522V4.79099C14.8804 4.72311 14.2355 4.69022 13.5903 4.69249C11.679 4.69249 10.3706 5.85905 10.3706 8.00151V9.84628H8.20898V12.3496H10.3706V18.773H12.9558Z" fill="#FDFDFD"/>
</g>
<circle cx="19" cy="19" r="7.7" fill="url(#paint0_linear_9374_35730)" stroke="white" stroke-width="1.4"/>
<path d="M21.9744 18.6066L22.8494 15.9816C22.8494 15.9816 21.4655 16.15 20.5744 16.1566C19.2008 16.1668 18.0977 15.5998 16.7244 15.6317C15.9698 15.6493 15.1494 15.9816 15.1494 15.9816V16.6816C15.1494 16.6816 15.5697 16.5405 15.8494 16.5066C16.1208 16.4737 16.5494 16.5066 16.5494 16.5066V20.0067C16.5494 20.0067 16.1208 19.9737 15.8494 20.0066C15.5697 20.0405 15.1494 20.1816 15.1494 20.1816V20.8817C15.1494 20.8817 15.9016 20.5469 16.7244 20.5317C18.1658 20.505 20.0083 21.0955 21.4494 21.0567C22.204 21.0363 22.8494 20.8817 22.8494 20.8817L21.9744 18.6066Z" fill="white"/>
<path d="M15.499 21.2316L16.199 21.0566V23.1566L15.499 23.3316V21.2316Z" fill="white"/>
<path d="M15.499 16.8566H16.199V19.4816L15.499 19.6566V16.8566Z" fill="white"/>
<path d="M15.499 14.9316C15.849 14.7565 15.849 14.7565 16.199 14.9316V15.2816L15.499 15.4566V14.9316Z" fill="white"/>
<defs>
<linearGradient id="paint0_linear_9374_35730" x1="19" y1="12" x2="19" y2="26" gradientUnits="userSpaceOnUse">
<stop stop-color="#FFC20A"/>
<stop offset="1" stop-color="#FF8D0A"/>
</linearGradient>
<clipPath id="clip0_9374_35730">
<rect width="24" height="24" rx="12" fill="white"/>
</clipPath>
</defs>
</svg>
