<svg width="28" height="28" viewBox="0 0 28 28" fill="none" xmlns="http://www.w3.org/2000/svg">
<path d="M26.1338 13.1162L16.1338 3.11614C15.959 2.94133 15.7363 2.82227 15.4938 2.77403C15.2514 2.72579 15 2.75053 14.7716 2.84513C14.5433 2.93972 14.348 3.09993 14.2107 3.30548C14.0733 3.51102 14 3.75268 14 3.9999V8.43106C10.5854 8.74712 7.41159 10.326 5.09967 12.8587C2.78775 15.3914 1.50414 18.6957 1.5 22.1249V24C1.49998 24.2595 1.58078 24.5127 1.73119 24.7243C1.8816 24.9359 2.09415 25.0954 2.33934 25.1807C2.58452 25.266 2.85018 25.2728 3.09943 25.2002C3.34867 25.1277 3.56914 24.9793 3.73023 24.7757C4.95479 23.3194 6.4573 22.1217 8.14998 21.2526C9.84265 20.3835 11.6916 19.8605 13.5887 19.7141C13.6509 19.7061 13.8072 19.6939 14 19.6817V24C14 24.2472 14.0733 24.4888 14.2107 24.6944C14.348 24.8999 14.5433 25.0601 14.7716 25.1547C15 25.2493 15.2514 25.2741 15.4938 25.2258C15.7363 25.1776 15.959 25.0585 16.1338 24.8837L26.1338 14.8837C26.2499 14.7676 26.342 14.6299 26.4048 14.4782C26.4677 14.3266 26.5 14.1641 26.5 13.9999C26.5 13.8358 26.4677 13.6733 26.4048 13.5216C26.342 13.37 26.2499 13.2322 26.1338 13.1162ZM16.5 20.9824V18.3749C16.5001 18.2108 16.4678 18.0482 16.405 17.8965C16.3422 17.7449 16.2501 17.607 16.134 17.491C16.0179 17.3749 15.8801 17.2828 15.7284 17.22C15.5768 17.1572 15.4142 17.1249 15.25 17.1249C14.9314 17.1249 13.6302 17.1866 13.2981 17.2312C9.92886 17.5415 6.72171 18.8215 4.06471 20.9164C4.36612 18.1593 5.67399 15.6103 7.73785 13.7575C9.80171 11.9047 12.4765 10.8783 15.25 10.8749C15.4142 10.875 15.5768 10.8427 15.7284 10.7799C15.8801 10.717 16.0179 10.625 16.134 10.5089C16.2501 10.3928 16.3422 10.255 16.405 10.1033C16.4678 9.95164 16.5001 9.78908 16.5 9.62491V7.01748L23.4825 13.9999L16.5 20.9824Z" fill="white"/>
<path d="M26.1338 13.1162L16.1338 3.11614C15.959 2.94133 15.7363 2.82227 15.4938 2.77403C15.2514 2.72579 15 2.75053 14.7716 2.84513C14.5433 2.93972 14.348 3.09993 14.2107 3.30548C14.0733 3.51102 14 3.75268 14 3.9999V8.43106C10.5854 8.74712 7.41159 10.326 5.09967 12.8587C2.78775 15.3914 1.50414 18.6957 1.5 22.1249V24C1.49998 24.2595 1.58078 24.5127 1.73119 24.7243C1.8816 24.9359 2.09415 25.0954 2.33934 25.1807C2.58452 25.266 2.85018 25.2728 3.09943 25.2002C3.34867 25.1277 3.56914 24.9793 3.73023 24.7757C4.95479 23.3194 6.4573 22.1217 8.14998 21.2526C9.84265 20.3835 11.6916 19.8605 13.5887 19.7141C13.6509 19.7061 13.8072 19.6939 14 19.6817V24C14 24.2472 14.0733 24.4888 14.2107 24.6944C14.348 24.8999 14.5433 25.0601 14.7716 25.1547C15 25.2493 15.2514 25.2741 15.4938 25.2258C15.7363 25.1776 15.959 25.0585 16.1338 24.8837L26.1338 14.8837C26.2499 14.7676 26.342 14.6299 26.4048 14.4782C26.4677 14.3266 26.5 14.1641 26.5 13.9999C26.5 13.8358 26.4677 13.6733 26.4048 13.5216C26.342 13.37 26.2499 13.2322 26.1338 13.1162ZM16.5 20.9824V18.3749C16.5001 18.2108 16.4678 18.0482 16.405 17.8965C16.3422 17.7449 16.2501 17.607 16.134 17.491C16.0179 17.3749 15.8801 17.2828 15.7284 17.22C15.5768 17.1572 15.4142 17.1249 15.25 17.1249C14.9314 17.1249 13.6302 17.1866 13.2981 17.2312C9.92886 17.5415 6.72171 18.8215 4.06471 20.9164C4.36612 18.1593 5.67399 15.6103 7.73785 13.7575C9.80171 11.9047 12.4765 10.8783 15.25 10.8749C15.4142 10.875 15.5768 10.8427 15.7284 10.7799C15.8801 10.717 16.0179 10.625 16.134 10.5089C16.2501 10.3928 16.3422 10.255 16.405 10.1033C16.4678 9.95164 16.5001 9.78908 16.5 9.62491V7.01748L23.4825 13.9999L16.5 20.9824Z" stroke="white"/>
</svg>
