<svg width="28" height="26" viewBox="0 0 28 26" fill="none" xmlns="http://www.w3.org/2000/svg">
<path d="M8.58939 11.7051L13.0601 1.646C13.9494 1.646 14.8023 1.99926 15.4311 2.62808C16.0599 3.2569 16.4132 4.10976 16.4132 4.99904V9.46977H22.7392C23.0633 9.4661 23.3842 9.53292 23.6799 9.66561C23.9755 9.79829 24.2387 9.99367 24.4514 10.2382C24.664 10.4827 24.8209 10.7706 24.9113 11.0817C25.0016 11.3929 25.0232 11.7201 24.9746 12.0404L23.4322 22.0996C23.3514 22.6326 23.0806 23.1185 22.6698 23.4676C22.2591 23.8168 21.7359 24.0057 21.1968 23.9996H8.58939M8.58939 11.7051V23.9996M8.58939 11.7051H5.23634C4.64349 11.7051 4.07491 11.9406 3.6557 12.3599C3.23649 12.7791 3.00098 13.3476 3.00098 13.9405V21.7643C3.00098 22.3571 3.23649 22.9257 3.6557 23.3449C4.07491 23.7641 4.64349 23.9996 5.23634 23.9996H8.58939" stroke="white" stroke-width="2.23536" stroke-linecap="round" stroke-linejoin="round"/>
</svg>
