<svg width="64" height="64" viewBox="0 0 64 64" fill="none" xmlns="http://www.w3.org/2000/svg">
<rect width="64" height="64" rx="16" fill="#E8F0FF"/>
<path d="M21.4199 31.5997H26.1197C26.4898 31.5997 26.7915 31.8866 26.7915 32.2446V42.605C26.7915 42.9603 26.4926 43.25 26.1197 43.25H21.4199C21.0499 43.25 20.7481 42.963 20.7481 42.605V32.2419C20.751 31.8866 21.0499 31.5997 21.4199 31.5997ZM28.434 40.815V33.3924C28.4369 31.5641 28.9692 29.7741 29.9741 28.2218C30.5861 27.2817 31.9582 25.7759 32.7268 24.997C32.8976 24.8221 33.5181 24.3083 33.5181 24.0268C33.5181 23.6661 33.5608 23.084 33.5751 21.999C33.5836 21.3103 34.1672 20.7446 34.8845 20.7501H34.9158C36.1712 20.772 36.5726 21.887 36.5726 21.887C36.5726 21.887 37.6457 23.9202 36.6437 26.4072C35.7983 28.5088 35.6246 28.6782 35.6246 28.6782C35.6246 28.6782 35.3514 29.0581 36.2167 29.0417C36.2167 29.0417 41.5001 29.0198 41.6823 29.0198C42.0723 29.0198 43.3162 29.3614 43.2451 30.8836C43.1938 32.0096 42.4651 32.4031 42.0922 32.5316C42.0438 32.548 42.0182 32.5999 42.0381 32.6464C42.0466 32.6655 42.0609 32.6819 42.0808 32.6928C42.4622 32.906 43.2422 33.4444 43.2252 34.2697C43.2024 35.2699 42.7839 35.6389 41.9128 35.8684C41.8645 35.8794 41.8331 35.9286 41.8474 35.975C41.8531 35.9996 41.8702 36.0187 41.8901 36.0297C42.2203 36.21 42.7868 36.65 42.7526 37.541C42.7184 38.4483 42.0353 38.768 41.6623 38.8773C41.614 38.891 41.5855 38.9402 41.5997 38.9867C41.6054 39.0058 41.6196 39.0249 41.6367 39.0358C41.873 39.1916 42.2231 39.5442 42.2061 40.2684C42.1975 40.651 42.0637 40.9297 41.8958 41.1292C41.631 41.4435 41.2154 41.6075 40.7941 41.6102L29.0717 41.6321C29.0688 41.6294 28.434 41.6321 28.434 40.815Z" fill="#5E92FF"/>
</svg>
