<svg width="14" height="15" viewBox="0 0 14 15" fill="none" xmlns="http://www.w3.org/2000/svg">
<path d="M3.25 13.5C2.00736 13.5 1 12.4926 1 11.25V3.74999C1 2.50735 2.00736 1.5 3.25 1.5H10.75C11.9926 1.5 13 2.50735 13 3.74999L13 11.25C13 12.4926 11.9926 13.5 10.75 13.5H3.25Z" fill="#F96056"/>
<path d="M9.12132 5.37866L7 7.49997M7 7.49997L4.87868 9.62127M7 7.49997L9.12132 9.62127M7 7.49997L4.87868 5.37866M13 3.74999L13 11.25C13 12.4926 11.9926 13.5 10.75 13.5H3.25C2.00736 13.5 1 12.4926 1 11.25V3.74999C1 2.50735 2.00736 1.5 3.25 1.5H10.75C11.9926 1.5 13 2.50735 13 3.74999Z" stroke="white" stroke-width="1.33333" stroke-linecap="round"/>
</svg>
