<svg width="19" height="18" viewBox="0 0 19 18" fill="none" xmlns="http://www.w3.org/2000/svg">
<path d="M3.43099 12.4497C2.59238 11.0349 2.29869 9.36239 2.60507 7.74624C2.91146 6.13009 3.79683 4.68145 5.09495 3.67236C6.39307 2.66327 8.01463 2.16314 9.65514 2.26588C11.2956 2.36861 12.8423 3.06715 14.0045 4.23033C15.1668 5.3935 15.8648 6.9413 15.9675 8.58307C16.0702 10.2248 15.5704 11.8476 14.5621 13.1468C13.5538 14.4459 12.1063 15.3319 10.4914 15.6386C8.87648 15.9452 7.20526 15.6513 5.79156 14.812L5.79158 14.812L3.46034 15.4786C3.36389 15.5061 3.26182 15.5074 3.16472 15.4822C3.06762 15.457 2.97901 15.4063 2.90808 15.3353C2.83715 15.2644 2.78648 15.1757 2.76131 15.0785C2.73615 14.9813 2.73742 14.8792 2.76498 14.7827L3.43104 12.4496L3.43099 12.4497Z" stroke="#616874" stroke-width="1.3851" stroke-linecap="round" stroke-linejoin="round"/>
<path d="M6.99072 7.87769H11.4906" stroke="#616874" stroke-width="1.3851" stroke-linecap="round" stroke-linejoin="round"/>
<path d="M6.99072 10.1277H11.4906" stroke="#616874" stroke-width="1.3851" stroke-linecap="round" stroke-linejoin="round"/>
</svg>
