<svg width="16" height="16" viewBox="0 0 16 16" fill="none" xmlns="http://www.w3.org/2000/svg">
    <g clip-path="url(#clip0_5087_44819)">
        <mask id="mask0_5087_44819" style="mask-type:luminance" maskUnits="userSpaceOnUse" x="0" y="0" width="16"
            height="16">
            <path d="M0 0H16V16H0V0Z" fill="white" />
        </mask>
        <g mask="url(#mask0_5087_44819)">
            <path fill-rule="evenodd" clip-rule="evenodd"
                d="M14.657 2.00065C14.657 1.63246 14.3586 1.33398 13.9904 1.33398H9.27637C8.90817 1.33398 8.60971 1.63246 8.60971 2.00065C8.60971 2.36884 8.90817 2.66732 9.27637 2.66732H12.3809L7.86217 7.18612C7.60177 7.44645 7.60177 7.86858 7.86217 8.12892C8.12251 8.38925 8.54457 8.38925 8.80497 8.12892L13.3237 3.61012V6.71472C13.3237 7.08285 13.6222 7.38138 13.9904 7.38138C14.3586 7.38138 14.657 7.08285 14.657 6.71472V2.00065ZM5.17251 14.6769H10.8276C11.3642 14.6769 11.8072 14.6769 12.1679 14.6475C12.5426 14.6169 12.8871 14.5511 13.2107 14.3863C13.7124 14.1307 14.1204 13.7227 14.376 13.2209C14.5409 12.8973 14.6066 12.5529 14.6372 12.1781C14.6667 11.8174 14.6667 11.3745 14.6667 10.8378V10.3436C14.6667 9.97538 14.3682 9.67692 14 9.67692C13.6318 9.67692 13.3334 9.97538 13.3334 10.3436V10.8103C13.3334 11.3813 13.3328 11.7695 13.3084 12.0696C13.2844 12.3619 13.2412 12.5113 13.188 12.6156C13.0602 12.8665 12.8562 13.0705 12.6054 13.1983C12.5011 13.2514 12.3516 13.2947 12.0594 13.3186C11.7593 13.3431 11.3711 13.3436 10.8 13.3436H5.20004C4.62899 13.3436 4.24079 13.3431 3.94073 13.3186C3.64845 13.2947 3.49899 13.2514 3.39472 13.1983C3.14384 13.0705 2.93986 12.8665 2.81203 12.6156C2.75891 12.5113 2.71562 12.3619 2.69174 12.0696C2.66723 11.7695 2.66671 11.3813 2.66671 10.8103V5.21026C2.66671 4.63921 2.66723 4.25102 2.69174 3.95096C2.71562 3.65868 2.75891 3.50921 2.81203 3.40494C2.93986 3.15406 3.14384 2.95008 3.39472 2.82226C3.49899 2.76913 3.64845 2.72584 3.94073 2.70196C4.24079 2.67745 4.62899 2.67693 5.20004 2.67693H5.66671C6.0349 2.67693 6.33337 2.37845 6.33337 2.01026C6.33337 1.64208 6.0349 1.3436 5.66671 1.3436H5.17249C4.63585 1.34359 4.19295 1.34358 3.83216 1.37306C3.45743 1.40368 3.11295 1.46938 2.7894 1.63424C2.28763 1.88991 1.87969 2.29786 1.62403 2.79962C1.45916 3.12318 1.39345 3.46765 1.36283 3.84238C1.33336 4.20317 1.33337 4.64608 1.33337 5.18271V10.8378C1.33337 11.3745 1.33336 11.8174 1.36283 12.1781C1.39345 12.5529 1.45916 12.8973 1.62402 13.2209C1.87969 13.7227 2.28763 14.1307 2.7894 14.3863C3.11295 14.5511 3.45743 14.6169 3.83215 14.6475C4.19295 14.6769 4.63586 14.6769 5.17251 14.6769Z"
                fill="#4AACEA" stroke="#4AACEA" />
        </g>
    </g>
    <defs>
        <clipPath id="clip0_5087_44819">
            <rect width="16" height="16" fill="white" />
        </clipPath>
    </defs>
</svg>