<svg width="18" height="18" viewBox="0 0 18 18" fill="none" xmlns="http://www.w3.org/2000/svg">
<path d="M9.6542 4.7443C10.5541 4.89512 11.3716 5.32017 12.0242 5.97145C12.6768 6.62273 13.0993 7.43855 13.2539 8.33664M9.79161 1.7998C11.3922 2.0706 12.852 2.82815 14.013 3.98332C15.174 5.14192 15.9296 6.59873 16.201 8.19609M14.9507 14.5512C14.9507 14.5512 14.0817 15.4048 13.8687 15.655C13.5218 16.0252 13.1131 16.2 12.5772 16.2C12.5257 16.2 12.4707 16.2 12.4192 16.1966C11.3991 16.1315 10.4511 15.7338 9.74006 15.3945C7.79595 14.4553 6.08885 13.1218 4.67026 11.4319C3.49899 10.0231 2.71585 8.72054 2.19719 7.322C1.87775 6.46847 1.76097 5.80348 1.81249 5.17619C1.84684 4.77514 2.00141 4.44264 2.2865 4.15813L3.45777 2.98925C3.62608 2.83157 3.80469 2.74588 3.97986 2.74588C4.19626 2.74588 4.37143 2.87613 4.48135 2.98582C4.48478 2.98925 4.48822 2.99268 4.49165 2.99611C4.70118 3.19149 4.9004 3.39373 5.10992 3.60968C5.2164 3.71937 5.32631 3.82906 5.43623 3.94218L6.37394 4.87797C6.73803 5.24132 6.73803 5.57724 6.37394 5.94059C6.27433 6.04 6.17815 6.1394 6.07854 6.23538C5.79002 6.53017 6.01667 6.30398 5.71784 6.57135C5.71097 6.57821 5.7041 6.58164 5.70066 6.58849C5.40527 6.88328 5.46023 7.17122 5.52205 7.3666C5.52549 7.37689 5.52892 7.38717 5.53236 7.39745C5.77623 7.98703 6.11971 8.54234 6.64181 9.20391L6.64524 9.20733C7.59325 10.3728 8.59279 11.2812 9.69536 11.977C9.83619 12.0661 9.98045 12.1381 10.1178 12.2067C10.2415 12.2684 10.3583 12.3266 10.4579 12.3883C10.4716 12.3952 10.4854 12.4055 10.4991 12.4123C10.6159 12.4706 10.7258 12.498 10.8392 12.498C11.1242 12.498 11.3029 12.3198 11.3613 12.2615L12.0345 11.5896C12.1513 11.4731 12.3368 11.3325 12.5532 11.3325C12.7661 11.3325 12.9413 11.4662 13.0478 11.5828C13.0512 11.5862 13.0512 11.5862 13.0547 11.5896L14.9473 13.4783C15.301 13.828 14.9507 14.5512 14.9507 14.5512Z" stroke="#616874" stroke-width="1.50002" stroke-linecap="round" stroke-linejoin="round"/>
</svg>
