<svg width="16" height="16" viewBox="0 0 16 16" fill="none" xmlns="http://www.w3.org/2000/svg">
    <g clip-path="url(#clip0_5087_44784)">
        <path
            d="M0.223333 5.50083L6.22333 0.167496C6.31916 0.0813942 6.43793 0.024965 6.56521 0.00506016C6.69249 -0.0148446 6.82281 0.00263113 6.94035 0.0553657C7.0579 0.1081 7.1576 0.193825 7.22736 0.302132C7.29712 0.410439 7.33393 0.536669 7.33333 0.665496V2.8035C9.336 3.34083 16 5.84216 16 15.3322C15.9998 15.4869 15.9457 15.6368 15.847 15.7561C15.7484 15.8753 15.6113 15.9565 15.4593 15.9858C15.3073 16.015 15.1499 15.9905 15.014 15.9163C14.8782 15.8422 14.7723 15.7231 14.7147 15.5795C12.738 10.6375 8.88467 9.60616 7.334 9.39083V11.3322C7.33414 11.4609 7.29701 11.5869 7.22711 11.6949C7.15722 11.803 7.05753 11.8885 6.94009 11.9412C6.82265 11.9938 6.69248 12.0114 6.56529 11.9917C6.43811 11.972 6.31934 11.9159 6.22333 11.8302L0.223333 6.49683C0.153059 6.43429 0.096818 6.35758 0.0583057 6.27175C0.0197935 6.18592 -0.000116348 6.09291 -0.000116348 5.99883C-0.000116348 5.90475 0.0197935 5.81174 0.0583057 5.72591C0.096818 5.64008 0.153059 5.56337 0.223333 5.50083Z"
            fill="#4AACEA" />
    </g>
    <defs>
        <clipPath id="clip0_5087_44784">
            <rect width="16" height="16" fill="white" transform="matrix(-1 0 0 1 16 0)" />
        </clipPath>
    </defs>
</svg>