<svg width="16" height="16" viewBox="0 0 16 16" fill="none" xmlns="http://www.w3.org/2000/svg">
    <path
        d="M7.99998 8C8.59694 8 9.18295 8.12825 9.69678 8.37135C9.9289 8.48117 10.1424 8.61261 10.3333 8.7623C10.565 8.94398 10.7633 9.15254 10.921 9.38199C11.2086 9.80049 11.3504 10.2731 11.3317 10.7504C11.3129 11.2278 11.1343 11.6923 10.8144 12.0955C10.4945 12.4988 10.0452 12.8259 9.51328 13.0427C8.98138 13.2595 8.38646 13.3581 7.79067 13.3281C7.19489 13.2981 6.6201 13.1406 6.12637 12.8722C5.63263 12.6038 5.23806 12.2342 4.98389 11.8021"
        stroke="#616874" stroke-width="1.5" stroke-linecap="round" stroke-linejoin="round" />
    <path d="M2.6665 8H13.3332" stroke="#616874" stroke-width="1.5" stroke-linecap="round" stroke-linejoin="round" />
    <path
        d="M11.0159 4.19776C10.7618 3.76564 10.3672 3.39606 9.87345 3.12762C9.37971 2.85919 8.80492 2.70175 8.20914 2.67177C7.61335 2.64178 7.01843 2.74034 6.48654 2.95715C5.95464 3.17397 5.50528 3.50107 5.18541 3.9043C4.86554 4.30753 4.6869 4.77207 4.66815 5.24941C4.66266 5.38926 4.67095 5.52871 4.69265 5.6665"
        stroke="#616874" stroke-width="1.5" stroke-linecap="round" stroke-linejoin="round" />
</svg>