<svg width="44" height="44" viewBox="0 0 44 44" fill="none" xmlns="http://www.w3.org/2000/svg">
<rect width="44" height="44" rx="12.9412" fill="#FFEEED"/>
<path d="M25.8891 19.5251C26.2796 19.1346 26.2796 18.5014 25.8891 18.1109C25.4986 17.7204 24.8654 17.7204 24.4749 18.1109L25.8891 19.5251ZM18.1109 24.4749C17.7204 24.8654 17.7204 25.4986 18.1109 25.8891C18.5014 26.2796 19.1346 26.2796 19.5251 25.8891L18.1109 24.4749ZM24.4749 25.8891C24.8654 26.2796 25.4986 26.2796 25.8891 25.8891C26.2796 25.4986 26.2796 24.8654 25.8891 24.4749L24.4749 25.8891ZM19.5251 18.1109C19.1346 17.7204 18.5014 17.7204 18.1109 18.1109C17.7204 18.5014 17.7204 19.1346 18.1109 19.5251L19.5251 18.1109ZM30 22C30 26.4183 26.4183 30 22 30V32C27.5228 32 32 27.5228 32 22H30ZM22 30C17.5817 30 14 26.4183 14 22H12C12 27.5228 16.4772 32 22 32V30ZM14 22C14 17.5817 17.5817 14 22 14V12C16.4772 12 12 16.4772 12 22H14ZM22 14C26.4183 14 30 17.5817 30 22H32C32 16.4772 27.5228 12 22 12V14ZM24.4749 18.1109L21.2929 21.2929L22.7071 22.7071L25.8891 19.5251L24.4749 18.1109ZM21.2929 21.2929L18.1109 24.4749L19.5251 25.8891L22.7071 22.7071L21.2929 21.2929ZM25.8891 24.4749L22.7071 21.2929L21.2929 22.7071L24.4749 25.8891L25.8891 24.4749ZM22.7071 21.2929L19.5251 18.1109L18.1109 19.5251L21.2929 22.7071L22.7071 21.2929Z" fill="#F96056"/>
</svg>
