<svg width="44" height="44" viewBox="0 0 44 44" fill="none" xmlns="http://www.w3.org/2000/svg">
<rect width="44" height="44" rx="12.9412" fill="#F0FDF4"/>
<g clip-path="url(#clip0_9762_42128)">
<path d="M21.9326 18.909C22.3492 18.4924 22.9126 18.2558 23.5018 18.2501C24.091 18.2444 24.6589 18.47 25.0835 18.8785C25.9922 19.7534 25.9707 21.2349 25.0787 22.1268L18.7959 28.2198C18.7245 28.289 18.6676 28.3718 18.6285 28.4632C18.5894 28.5547 18.5688 28.653 18.5681 28.7524C18.5673 28.8519 18.5863 28.9505 18.624 29.0425C18.6618 29.1346 18.7174 29.2182 18.7877 29.2885L21.474 31.9748C21.6138 32.1146 21.803 32.1935 22.0007 32.1945C22.1983 32.1955 22.3884 32.1184 22.5295 31.98L28.7603 25.8699C31.6845 22.9457 31.7694 18.1829 28.8669 15.2371C28.1724 14.532 27.3452 13.9713 26.433 13.5873C25.5208 13.2034 24.5417 13.0038 23.552 13.0001C22.5623 12.9963 21.5816 13.1885 20.6666 13.5655C19.7515 13.9425 18.9201 14.4969 18.2203 15.1967L12.0231 21.4697C11.8839 21.6106 11.806 21.8009 11.8066 21.9991C11.8072 22.1972 11.8862 22.387 12.0263 22.5271L14.7126 25.2135C14.7828 25.2836 14.8662 25.3392 14.958 25.3769C15.0498 25.4146 15.1481 25.4337 15.2473 25.4331C15.3466 25.4325 15.4447 25.4123 15.536 25.3735C15.6274 25.3347 15.7101 25.2782 15.7795 25.2072L21.9326 18.909Z" stroke="#25C277" stroke-width="2" stroke-linecap="round" stroke-linejoin="round"/>
<path d="M21.8848 25.2246L25.6148 28.9547" stroke="#25C277" stroke-width="2" stroke-linecap="round" stroke-linejoin="round"/>
<path d="M15.0586 18.3984L18.7886 22.1285" stroke="#25C277" stroke-width="2" stroke-linecap="round" stroke-linejoin="round"/>
</g>
<defs>
<clipPath id="clip0_9762_42128">
<rect width="24" height="24" fill="white" transform="translate(10 10)"/>
</clipPath>
</defs>
</svg>
