<svg width="44" height="44" viewBox="0 0 44 44" fill="none" xmlns="http://www.w3.org/2000/svg">
<rect width="44" height="44" rx="12.9412" fill="#FDF2F8"/>
<path d="M28.088 26.8638C27.5434 26.9553 27.176 27.471 27.2675 28.0157C27.359 28.5603 27.8747 28.9277 28.4194 28.8362L28.088 26.8638ZM27.0152 21.3824C26.4629 21.3824 26.0152 21.8301 26.0152 22.3824C26.0152 22.9347 26.4629 23.3824 27.0152 23.3824V21.3824ZM26.0924 20.2827C27.5684 20.2827 28.7646 19.0858 28.7646 17.61H26.7646C26.7646 17.9818 26.4633 18.2827 26.0924 18.2827V20.2827ZM23.4202 17.61C23.4202 19.0858 24.6163 20.2827 26.0924 20.2827V18.2827C25.7214 18.2827 25.4202 17.9818 25.4202 17.61H23.4202ZM26.0924 14.9373C24.6163 14.9373 23.4202 16.1342 23.4202 17.61H25.4202C25.4202 17.2382 25.7214 16.9373 26.0924 16.9373V14.9373ZM28.7646 17.61C28.7646 16.1342 27.5684 14.9373 26.0924 14.9373V16.9373C26.4633 16.9373 26.7646 17.2382 26.7646 17.61H28.7646ZM30 25.1641C30 25.5763 29.8701 25.9126 29.6161 26.1792C29.3531 26.4551 28.8849 26.73 28.088 26.8638L28.4194 28.8362C29.524 28.6506 30.429 28.225 31.0638 27.5591C31.7075 26.8838 32 26.0369 32 25.1641H30ZM27.0152 23.3824C27.9362 23.3824 28.7269 23.6446 29.2605 24.0171C29.7974 24.3919 30 24.8131 30 25.1641H32C32 23.9788 31.3105 23.0091 30.4053 22.3771C29.4967 21.7429 28.295 21.3824 27.0152 21.3824V23.3824ZM20.2625 17.4294C20.2625 18.4651 19.5838 19.0307 18.8918 19.0307V21.0307C20.8184 21.0307 22.2625 19.435 22.2625 17.4294H20.2625ZM18.8918 19.0307C18.1998 19.0307 17.5211 18.4651 17.5211 17.4294H15.5211C15.5211 19.435 16.9652 21.0307 18.8918 21.0307V19.0307ZM17.5211 17.4294C17.5211 16.9122 17.6957 16.5724 17.9127 16.3613C18.1359 16.1442 18.4696 16 18.8918 16V14C18.0048 14 17.1531 14.3101 16.5183 14.9276C15.8773 15.551 15.5211 16.4258 15.5211 17.4294H17.5211ZM18.8918 16C19.3141 16 19.6478 16.1442 19.871 16.3613C20.088 16.5724 20.2625 16.9122 20.2625 17.4294H22.2625C22.2625 16.4258 21.9064 15.551 21.2654 14.9276C20.6306 14.3101 19.7789 14 18.8918 14V16ZM24.0703 26.1679C24.0703 26.4806 23.9159 26.8937 23.1677 27.2838C22.3865 27.6911 21.0606 28 19.0351 28L19.0351 30C21.216 30 22.9076 29.6749 24.0924 29.0572C25.3103 28.4222 26.0703 27.4193 26.0703 26.1679H24.0703ZM19.0351 28C17.0096 28 15.6837 27.6911 14.9025 27.2838C14.1544 26.8937 14 26.4806 14 26.1679H12C12 27.4193 12.76 28.4222 13.9779 29.0572C15.1627 29.6749 16.8543 30 19.0351 30L19.0351 28ZM14 26.1679C14 26.0022 14.1814 25.545 15.1925 25.0705C16.1242 24.6333 17.4817 24.3357 19.0351 24.3357V22.3357C17.2554 22.3357 15.5954 22.6722 14.3428 23.26C13.1696 23.8105 12 24.7695 12 26.1679H14ZM19.0351 24.3357C20.5886 24.3357 21.9461 24.6333 22.8778 25.0705C23.8889 25.545 24.0703 26.0022 24.0703 26.1679H26.0703C26.0703 24.7695 24.9006 23.8105 23.7274 23.26C22.4749 22.6722 20.8148 22.3357 19.0351 22.3357V24.3357Z" fill="#ED4F9D"/>
</svg>
